<svg xmlns="http://www.w3.org/2000/svg" xmlns:xlink="http://www.w3.org/1999/xlink" width="300" zoomAndPan="magnify" viewBox="0 0 224.87999 44.999999" height="60" preserveAspectRatio="xMidYMid meet" version="1.0"><defs><g/></defs><g fill="#ff751f" fill-opacity="1"><g transform="translate(14.228617, 36.585946)"><g><path d="M 3.46875 0 L 3.46875 -26.34375 L 21.140625 -26.34375 L 21.109375 -22.34375 L 7.90625 -22.34375 L 7.90625 -14.75 L 19.859375 -14.75 L 19.859375 -10.796875 L 7.90625 -10.796875 L 7.90625 0 Z M 3.46875 0 "/></g></g></g><g fill="#ff751f" fill-opacity="1"><g transform="translate(35.86047, 36.585946)"><g><path d="M 3.203125 0 L 3.203125 -20.015625 L 7.484375 -20.015625 L 7.484375 0 Z M 5.34375 -28.375 C 6.070312 -28.375 6.675781 -28.128906 7.15625 -27.640625 C 7.632812 -27.148438 7.875 -26.515625 7.875 -25.734375 C 7.875 -24.984375 7.632812 -24.359375 7.15625 -23.859375 C 6.675781 -23.359375 6.070312 -23.109375 5.34375 -23.109375 C 4.613281 -23.109375 4.007812 -23.359375 3.53125 -23.859375 C 3.0625 -24.359375 2.828125 -24.984375 2.828125 -25.734375 C 2.828125 -26.515625 3.0625 -27.148438 3.53125 -27.640625 C 4.007812 -28.128906 4.613281 -28.375 5.34375 -28.375 Z M 5.34375 -28.375 "/></g></g></g><g fill="#ff751f" fill-opacity="1"><g transform="translate(46.544729, 36.585946)"><g><path d="M 14.90625 -20.171875 C 17.238281 -20.171875 19.0625 -19.484375 20.375 -18.109375 C 21.6875 -16.742188 22.34375 -14.859375 22.34375 -12.453125 L 22.34375 0 L 18.015625 0 L 18.015625 -11.25 C 18.015625 -12.75 17.585938 -13.929688 16.734375 -14.796875 C 15.890625 -15.671875 14.710938 -16.109375 13.203125 -16.109375 C 11.597656 -16.078125 10.285156 -15.5625 9.265625 -14.5625 C 8.253906 -13.5625 7.675781 -12.253906 7.53125 -10.640625 L 7.53125 0 L 3.203125 0 L 3.203125 -20.015625 L 7.53125 -20.015625 L 7.53125 -16.171875 C 8.882812 -18.835938 11.34375 -20.171875 14.90625 -20.171875 Z M 14.90625 -20.171875 "/></g></g></g><g fill="#ff751f" fill-opacity="1"><g transform="translate(71.487193, 36.585946)"><g><path d="M 3.46875 0 L 3.46875 -26.34375 L 22.28125 -26.34375 L 22.28125 -22.34375 L 7.90625 -22.34375 L 7.90625 -15.203125 L 20.765625 -15.203125 L 20.765625 -11.25 L 7.90625 -11.25 L 7.90625 -3.984375 L 22.71875 -3.984375 L 22.71875 0 Z M 3.46875 0 "/></g></g></g><g fill="#ff751f" fill-opacity="1"><g transform="translate(96.16632, 36.585946)"><g><path d="M 7.78125 0 L 0.03125 -20.015625 L 4.546875 -20.015625 L 10.125 -4.25 L 15.609375 -20.015625 L 19.9375 -20.015625 L 12.265625 0 Z M 7.78125 0 "/></g></g></g><g fill="#ff751f" fill-opacity="1"><g transform="translate(115.352686, 36.585946)"><g><path d="M 19.453125 0 L 15.203125 0 L 15.203125 -2.453125 C 13.773438 -0.691406 11.566406 0.1875 8.578125 0.1875 C 7.171875 0.1875 5.929688 -0.0820312 4.859375 -0.625 C 3.796875 -1.164062 2.976562 -1.90625 2.40625 -2.84375 C 1.832031 -3.78125 1.546875 -4.835938 1.546875 -6.015625 C 1.546875 -7.847656 2.207031 -9.300781 3.53125 -10.375 C 4.863281 -11.457031 6.722656 -12.015625 9.109375 -12.046875 L 15.15625 -12.046875 L 15.15625 -12.640625 C 15.15625 -13.921875 14.75 -14.910156 13.9375 -15.609375 C 13.125 -16.316406 11.941406 -16.671875 10.390625 -16.671875 C 8.453125 -16.671875 6.484375 -15.992188 4.484375 -14.640625 L 2.703125 -17.640625 C 4.234375 -18.546875 5.609375 -19.191406 6.828125 -19.578125 C 8.046875 -19.972656 9.546875 -20.171875 11.328125 -20.171875 C 13.878906 -20.171875 15.859375 -19.546875 17.265625 -18.296875 C 18.671875 -17.054688 19.390625 -15.332031 19.421875 -13.125 Z M 9.484375 -3.234375 C 11.015625 -3.234375 12.3125 -3.585938 13.375 -4.296875 C 14.4375 -5.015625 15.03125 -5.925781 15.15625 -7.03125 L 15.15625 -8.875 L 9.75 -8.875 C 8.3125 -8.875 7.257812 -8.664062 6.59375 -8.25 C 5.9375 -7.84375 5.609375 -7.160156 5.609375 -6.203125 C 5.609375 -5.304688 5.953125 -4.585938 6.640625 -4.046875 C 7.328125 -3.503906 8.273438 -3.234375 9.484375 -3.234375 Z M 9.484375 -3.234375 "/></g></g></g><g fill="#ff751f" fill-opacity="1"><g transform="translate(137.398365, 36.585946)"><g><path d="M 3.390625 0 L 3.390625 -27.921875 L 7.71875 -27.921875 L 7.71875 0 Z M 3.390625 0 "/></g></g></g><g fill="#ff751f" fill-opacity="1"><g transform="translate(148.49645, 36.585946)"><g><path d="M 14.59375 -14.96875 C 13.71875 -15.519531 12.757812 -15.953125 11.71875 -16.265625 C 10.675781 -16.585938 9.71875 -16.75 8.84375 -16.75 C 7.9375 -16.75 7.21875 -16.582031 6.6875 -16.25 C 6.164062 -15.925781 5.90625 -15.425781 5.90625 -14.75 C 5.90625 -14.070312 6.210938 -13.554688 6.828125 -13.203125 C 7.441406 -12.847656 8.460938 -12.445312 9.890625 -12 C 11.242188 -11.601562 12.363281 -11.203125 13.25 -10.796875 C 14.144531 -10.398438 14.910156 -9.796875 15.546875 -8.984375 C 16.191406 -8.179688 16.515625 -7.128906 16.515625 -5.828125 C 16.515625 -3.867188 15.78125 -2.378906 14.3125 -1.359375 C 12.84375 -0.347656 11.019531 0.15625 8.84375 0.15625 C 7.332031 0.15625 5.851562 -0.0859375 4.40625 -0.578125 C 2.96875 -1.066406 1.765625 -1.753906 0.796875 -2.640625 L 2.328125 -5.71875 C 3.179688 -4.96875 4.226562 -4.363281 5.46875 -3.90625 C 6.71875 -3.457031 7.90625 -3.234375 9.03125 -3.234375 C 10.007812 -3.234375 10.796875 -3.410156 11.390625 -3.765625 C 11.992188 -4.117188 12.296875 -4.65625 12.296875 -5.375 C 12.296875 -5.925781 12.113281 -6.382812 11.75 -6.75 C 11.394531 -7.113281 10.953125 -7.398438 10.421875 -7.609375 C 9.890625 -7.828125 9.125 -8.085938 8.125 -8.390625 C 6.800781 -8.796875 5.71875 -9.191406 4.875 -9.578125 C 4.03125 -9.960938 3.304688 -10.535156 2.703125 -11.296875 C 2.109375 -12.066406 1.8125 -13.09375 1.8125 -14.375 C 1.8125 -16.28125 2.507812 -17.726562 3.90625 -18.71875 C 5.3125 -19.707031 7.070312 -20.203125 9.1875 -20.203125 C 10.457031 -20.203125 11.710938 -20.019531 12.953125 -19.65625 C 14.203125 -19.289062 15.273438 -18.796875 16.171875 -18.171875 Z M 14.59375 -14.96875 "/></g></g></g><g fill="#ff751f" fill-opacity="1"><g transform="translate(166.178137, 36.585946)"><g><path d="M 4.09375 -4.625 C 4.769531 -4.625 5.332031 -4.390625 5.78125 -3.921875 C 6.238281 -3.460938 6.46875 -2.882812 6.46875 -2.1875 C 6.46875 -1.457031 6.238281 -0.851562 5.78125 -0.375 C 5.332031 0.101562 4.769531 0.34375 4.09375 0.34375 C 3.414062 0.34375 2.851562 0.101562 2.40625 -0.375 C 1.957031 -0.851562 1.734375 -1.457031 1.734375 -2.1875 C 1.734375 -2.882812 1.957031 -3.460938 2.40625 -3.921875 C 2.851562 -4.390625 3.414062 -4.625 4.09375 -4.625 Z M 4.09375 -4.625 "/></g></g></g><g fill="#ff751f" fill-opacity="1"><g transform="translate(174.379425, 36.585946)"><g><path d="M 19.453125 0 L 15.203125 0 L 15.203125 -2.453125 C 13.773438 -0.691406 11.566406 0.1875 8.578125 0.1875 C 7.171875 0.1875 5.929688 -0.0820312 4.859375 -0.625 C 3.796875 -1.164062 2.976562 -1.90625 2.40625 -2.84375 C 1.832031 -3.78125 1.546875 -4.835938 1.546875 -6.015625 C 1.546875 -7.847656 2.207031 -9.300781 3.53125 -10.375 C 4.863281 -11.457031 6.722656 -12.015625 9.109375 -12.046875 L 15.15625 -12.046875 L 15.15625 -12.640625 C 15.15625 -13.921875 14.75 -14.910156 13.9375 -15.609375 C 13.125 -16.316406 11.941406 -16.671875 10.390625 -16.671875 C 8.453125 -16.671875 6.484375 -15.992188 4.484375 -14.640625 L 2.703125 -17.640625 C 4.234375 -18.546875 5.609375 -19.191406 6.828125 -19.578125 C 8.046875 -19.972656 9.546875 -20.171875 11.328125 -20.171875 C 13.878906 -20.171875 15.859375 -19.546875 17.265625 -18.296875 C 18.671875 -17.054688 19.390625 -15.332031 19.421875 -13.125 Z M 9.484375 -3.234375 C 11.015625 -3.234375 12.3125 -3.585938 13.375 -4.296875 C 14.4375 -5.015625 15.03125 -5.925781 15.15625 -7.03125 L 15.15625 -8.875 L 9.75 -8.875 C 8.3125 -8.875 7.257812 -8.664062 6.59375 -8.25 C 5.9375 -7.84375 5.609375 -7.160156 5.609375 -6.203125 C 5.609375 -5.304688 5.953125 -4.585938 6.640625 -4.046875 C 7.328125 -3.503906 8.273438 -3.234375 9.484375 -3.234375 Z M 9.484375 -3.234375 "/></g></g></g><g fill="#ff751f" fill-opacity="1"><g transform="translate(196.425105, 36.585946)"><g><path d="M 3.203125 0 L 3.203125 -20.015625 L 7.484375 -20.015625 L 7.484375 0 Z M 5.34375 -28.375 C 6.070312 -28.375 6.675781 -28.128906 7.15625 -27.640625 C 7.632812 -27.148438 7.875 -26.515625 7.875 -25.734375 C 7.875 -24.984375 7.632812 -24.359375 7.15625 -23.859375 C 6.675781 -23.359375 6.070312 -23.109375 5.34375 -23.109375 C 4.613281 -23.109375 4.007812 -23.359375 3.53125 -23.859375 C 3.0625 -24.359375 2.828125 -24.984375 2.828125 -25.734375 C 2.828125 -26.515625 3.0625 -27.148438 3.53125 -27.640625 C 4.007812 -28.128906 4.613281 -28.375 5.34375 -28.375 Z M 5.34375 -28.375 "/></g></g></g></svg>