<svg xmlns="http://www.w3.org/2000/svg" xmlns:xlink="http://www.w3.org/1999/xlink" width="150" zoomAndPan="magnify" viewBox="0 0 112.5 33.749998" height="45" preserveAspectRatio="xMidYMid meet" version="1.0"><defs><g/><clipPath id="eda8c03251"><rect x="0" width="79" y="0" height="20"/></clipPath></defs><g transform="matrix(1, 0, 0, 1, 2, 7)"><g clip-path="url(#eda8c03251)"><g fill="#ff751f" fill-opacity="1"><g transform="translate(0.678082, 15.149202)"><g><path d="M 1.390625 0 L 1.390625 -10.546875 L 8.46875 -10.546875 L 8.453125 -8.953125 L 3.15625 -8.953125 L 3.15625 -5.90625 L 7.953125 -5.90625 L 7.953125 -4.328125 L 3.15625 -4.328125 L 3.15625 0 Z M 1.390625 0 "/></g></g></g><g fill="#ff751f" fill-opacity="1"><g transform="translate(9.332694, 15.149202)"><g><path d="M 1.28125 0 L 1.28125 -8.015625 L 3 -8.015625 L 3 0 Z M 2.140625 -11.359375 C 2.429688 -11.359375 2.671875 -11.257812 2.859375 -11.0625 C 3.054688 -10.863281 3.15625 -10.609375 3.15625 -10.296875 C 3.15625 -9.992188 3.054688 -9.742188 2.859375 -9.546875 C 2.671875 -9.347656 2.429688 -9.25 2.140625 -9.25 C 1.847656 -9.25 1.609375 -9.347656 1.421875 -9.546875 C 1.234375 -9.742188 1.140625 -9.992188 1.140625 -10.296875 C 1.140625 -10.609375 1.234375 -10.863281 1.421875 -11.0625 C 1.609375 -11.257812 1.847656 -11.359375 2.140625 -11.359375 Z M 2.140625 -11.359375 "/></g></g></g><g fill="#ff751f" fill-opacity="1"><g transform="translate(13.607321, 15.149202)"><g><path d="M 5.96875 -8.078125 C 6.894531 -8.078125 7.625 -7.800781 8.15625 -7.25 C 8.6875 -6.707031 8.953125 -5.953125 8.953125 -4.984375 L 8.953125 0 L 7.21875 0 L 7.21875 -4.5 C 7.21875 -5.101562 7.046875 -5.578125 6.703125 -5.921875 C 6.359375 -6.273438 5.882812 -6.453125 5.28125 -6.453125 C 4.644531 -6.441406 4.125 -6.234375 3.71875 -5.828125 C 3.3125 -5.429688 3.078125 -4.910156 3.015625 -4.265625 L 3.015625 0 L 1.28125 0 L 1.28125 -8.015625 L 3.015625 -8.015625 L 3.015625 -6.484375 C 3.554688 -7.546875 4.539062 -8.078125 5.96875 -8.078125 Z M 5.96875 -8.078125 "/></g></g></g><g fill="#ff751f" fill-opacity="1"><g transform="translate(23.586463, 15.149202)"><g><path d="M 1.390625 0 L 1.390625 -10.546875 L 8.921875 -10.546875 L 8.921875 -8.953125 L 3.15625 -8.953125 L 3.15625 -6.078125 L 8.3125 -6.078125 L 8.3125 -4.5 L 3.15625 -4.5 L 3.15625 -1.59375 L 9.09375 -1.59375 L 9.09375 0 Z M 1.390625 0 "/></g></g></g><g fill="#ff751f" fill-opacity="1"><g transform="translate(33.460248, 15.149202)"><g><path d="M 3.125 0 L 0.015625 -8.015625 L 1.828125 -8.015625 L 4.046875 -1.703125 L 6.25 -8.015625 L 7.984375 -8.015625 L 4.90625 0 Z M 3.125 0 "/></g></g></g><g fill="#ff751f" fill-opacity="1"><g transform="translate(41.136454, 15.149202)"><g><path d="M 7.78125 0 L 6.078125 0 L 6.078125 -0.984375 C 5.515625 -0.273438 4.632812 0.078125 3.4375 0.078125 C 2.875 0.078125 2.378906 -0.03125 1.953125 -0.25 C 1.523438 -0.46875 1.195312 -0.765625 0.96875 -1.140625 C 0.738281 -1.515625 0.625 -1.9375 0.625 -2.40625 C 0.625 -3.144531 0.890625 -3.726562 1.421875 -4.15625 C 1.953125 -4.59375 2.691406 -4.8125 3.640625 -4.8125 L 6.0625 -4.8125 L 6.0625 -5.0625 C 6.0625 -5.570312 5.898438 -5.96875 5.578125 -6.25 C 5.253906 -6.53125 4.78125 -6.671875 4.15625 -6.671875 C 3.382812 -6.671875 2.597656 -6.398438 1.796875 -5.859375 L 1.078125 -7.0625 C 1.691406 -7.425781 2.242188 -7.6875 2.734375 -7.84375 C 3.222656 -8 3.820312 -8.078125 4.53125 -8.078125 C 5.550781 -8.078125 6.34375 -7.828125 6.90625 -7.328125 C 7.46875 -6.828125 7.753906 -6.132812 7.765625 -5.25 Z M 3.796875 -1.296875 C 4.410156 -1.296875 4.929688 -1.4375 5.359375 -1.71875 C 5.785156 -2.007812 6.019531 -2.375 6.0625 -2.8125 L 6.0625 -3.5625 L 3.90625 -3.5625 C 3.332031 -3.5625 2.910156 -3.476562 2.640625 -3.3125 C 2.378906 -3.144531 2.25 -2.867188 2.25 -2.484375 C 2.25 -2.117188 2.382812 -1.828125 2.65625 -1.609375 C 2.9375 -1.398438 3.316406 -1.296875 3.796875 -1.296875 Z M 3.796875 -1.296875 "/></g></g></g><g fill="#ff751f" fill-opacity="1"><g transform="translate(49.956632, 15.149202)"><g><path d="M 1.359375 0 L 1.359375 -11.171875 L 3.09375 -11.171875 L 3.09375 0 Z M 1.359375 0 "/></g></g></g><g fill="#ff751f" fill-opacity="1"><g transform="translate(54.396825, 15.149202)"><g><path d="M 5.84375 -6 C 5.488281 -6.21875 5.101562 -6.390625 4.6875 -6.515625 C 4.269531 -6.640625 3.890625 -6.703125 3.546875 -6.703125 C 3.179688 -6.703125 2.890625 -6.632812 2.671875 -6.5 C 2.460938 -6.375 2.359375 -6.175781 2.359375 -5.90625 C 2.359375 -5.632812 2.484375 -5.425781 2.734375 -5.28125 C 2.984375 -5.144531 3.394531 -4.988281 3.96875 -4.8125 C 4.507812 -4.644531 4.957031 -4.476562 5.3125 -4.3125 C 5.664062 -4.15625 5.96875 -3.914062 6.21875 -3.59375 C 6.476562 -3.28125 6.609375 -2.859375 6.609375 -2.328125 C 6.609375 -1.546875 6.3125 -0.953125 5.71875 -0.546875 C 5.132812 -0.140625 4.410156 0.0625 3.546875 0.0625 C 2.941406 0.0625 2.347656 -0.0351562 1.765625 -0.234375 C 1.191406 -0.429688 0.707031 -0.703125 0.3125 -1.046875 L 0.9375 -2.296875 C 1.28125 -1.992188 1.695312 -1.75 2.1875 -1.5625 C 2.6875 -1.382812 3.160156 -1.296875 3.609375 -1.296875 C 4.003906 -1.296875 4.320312 -1.363281 4.5625 -1.5 C 4.800781 -1.644531 4.921875 -1.863281 4.921875 -2.15625 C 4.921875 -2.375 4.847656 -2.554688 4.703125 -2.703125 C 4.554688 -2.847656 4.378906 -2.960938 4.171875 -3.046875 C 3.960938 -3.128906 3.65625 -3.234375 3.25 -3.359375 C 2.71875 -3.515625 2.285156 -3.671875 1.953125 -3.828125 C 1.617188 -3.984375 1.328125 -4.210938 1.078125 -4.515625 C 0.835938 -4.828125 0.71875 -5.238281 0.71875 -5.75 C 0.71875 -6.519531 1 -7.101562 1.5625 -7.5 C 2.125 -7.894531 2.828125 -8.09375 3.671875 -8.09375 C 4.179688 -8.09375 4.6875 -8.019531 5.1875 -7.875 C 5.6875 -7.726562 6.117188 -7.53125 6.484375 -7.28125 Z M 5.84375 -6 "/></g></g></g><g fill="#ff751f" fill-opacity="1"><g transform="translate(61.471029, 15.149202)"><g><path d="M 1.640625 -1.859375 C 1.910156 -1.859375 2.132812 -1.765625 2.3125 -1.578125 C 2.5 -1.390625 2.59375 -1.15625 2.59375 -0.875 C 2.59375 -0.582031 2.5 -0.335938 2.3125 -0.140625 C 2.132812 0.046875 1.910156 0.140625 1.640625 0.140625 C 1.367188 0.140625 1.140625 0.046875 0.953125 -0.140625 C 0.773438 -0.335938 0.6875 -0.582031 0.6875 -0.875 C 0.6875 -1.15625 0.773438 -1.390625 0.953125 -1.578125 C 1.140625 -1.765625 1.367188 -1.859375 1.640625 -1.859375 Z M 1.640625 -1.859375 "/></g></g></g><g fill="#ff751f" fill-opacity="1"><g transform="translate(64.752254, 15.149202)"><g><path d="M 7.78125 0 L 6.078125 0 L 6.078125 -0.984375 C 5.515625 -0.273438 4.632812 0.078125 3.4375 0.078125 C 2.875 0.078125 2.378906 -0.03125 1.953125 -0.25 C 1.523438 -0.46875 1.195312 -0.765625 0.96875 -1.140625 C 0.738281 -1.515625 0.625 -1.9375 0.625 -2.40625 C 0.625 -3.144531 0.890625 -3.726562 1.421875 -4.15625 C 1.953125 -4.59375 2.691406 -4.8125 3.640625 -4.8125 L 6.0625 -4.8125 L 6.0625 -5.0625 C 6.0625 -5.570312 5.898438 -5.96875 5.578125 -6.25 C 5.253906 -6.53125 4.78125 -6.671875 4.15625 -6.671875 C 3.382812 -6.671875 2.597656 -6.398438 1.796875 -5.859375 L 1.078125 -7.0625 C 1.691406 -7.425781 2.242188 -7.6875 2.734375 -7.84375 C 3.222656 -8 3.820312 -8.078125 4.53125 -8.078125 C 5.550781 -8.078125 6.34375 -7.828125 6.90625 -7.328125 C 7.46875 -6.828125 7.753906 -6.132812 7.765625 -5.25 Z M 3.796875 -1.296875 C 4.410156 -1.296875 4.929688 -1.4375 5.359375 -1.71875 C 5.785156 -2.007812 6.019531 -2.375 6.0625 -2.8125 L 6.0625 -3.5625 L 3.90625 -3.5625 C 3.332031 -3.5625 2.910156 -3.476562 2.640625 -3.3125 C 2.378906 -3.144531 2.25 -2.867188 2.25 -2.484375 C 2.25 -2.117188 2.382812 -1.828125 2.65625 -1.609375 C 2.9375 -1.398438 3.316406 -1.296875 3.796875 -1.296875 Z M 3.796875 -1.296875 "/></g></g></g><g fill="#ff751f" fill-opacity="1"><g transform="translate(73.572432, 15.149202)"><g><path d="M 1.28125 0 L 1.28125 -8.015625 L 3 -8.015625 L 3 0 Z M 2.140625 -11.359375 C 2.429688 -11.359375 2.671875 -11.257812 2.859375 -11.0625 C 3.054688 -10.863281 3.15625 -10.609375 3.15625 -10.296875 C 3.15625 -9.992188 3.054688 -9.742188 2.859375 -9.546875 C 2.671875 -9.347656 2.429688 -9.25 2.140625 -9.25 C 1.847656 -9.25 1.609375 -9.347656 1.421875 -9.546875 C 1.234375 -9.742188 1.140625 -9.992188 1.140625 -10.296875 C 1.140625 -10.609375 1.234375 -10.863281 1.421875 -11.0625 C 1.609375 -11.257812 1.847656 -11.359375 2.140625 -11.359375 Z M 2.140625 -11.359375 "/></g></g></g></g></g></svg>